<svg id="Layer_1" enable-background="new 0 0 512.002 512.002" height="512" viewBox="0 0 512.002 512.002" width="512" xmlns="http://www.w3.org/2000/svg"><g><g><path d="m231.024 220.006v-.008c0-8.284-6.716-14.996-15-14.996s-15 6.72-15 15.004 6.716 15 15 15 15-6.716 15-15z"/><path d="m296.027 205.002c-8.284 0-15 6.72-15 15.004s6.716 15 15 15 15-6.716 15-15v-.008c0-8.284-6.716-14.996-15-14.996z"/><path d="m273.443 265.34c-5.289 3.054-11.312 4.667-17.418 4.667s-12.129-1.614-17.417-4.667c-4.784-2.762-10.898-1.122-13.66 3.66-2.762 4.783-1.123 10.898 3.66 13.66 8.324 4.806 17.805 7.347 27.417 7.347 9.611 0 19.093-2.541 27.418-7.346 4.782-2.761 6.422-8.877 3.66-13.66-2.76-4.782-8.874-6.421-13.66-3.661z"/><path d="m405.888 62.188c15.688-21.478 17.437-50.27 17.511-51.646.175-3.225-1.219-6.336-3.741-8.353s-5.864-2.691-8.972-1.81c-34.545 9.793-72.527 8.2-109.26 6.659-5.52-.22-10.178 4.054-10.41 9.572-.231 5.518 4.054 10.179 9.572 10.41 33.293 1.396 67.575 2.835 100.685-3.817-2.319 10.213-7.035 23.868-16.467 32.852-2.351 2.239-3.614 5.402-3.144 8.613.467 3.188 2.296 5.876 5.152 7.354 1.016.631 10.426 6.859 16.798 24.388 5.974 16.433 10.085 45.819-2.578 94.018-1.63-.275-3.302-.426-5.009-.426h-.334c-4.343-63.888-49.713-81.652-51.736-82.412-3.313-1.243-7.037-.642-9.792 1.581-2.754 2.223-4.128 5.736-3.613 9.237.372 2.532.199 6.215-.435 10.167-17.939-17.505-45.94-28.246-78.618-29.544-25.006-.992-55.856 4.136-71.365 20.97-15.327.705-29.07 6.603-39.989 17.221-13.041 12.681-21.544 31.911-23.622 52.78h-.496c-1.887 0-3.73.183-5.521.518-10.325-33.304-11.934-78.495 5.23-104.688 8.606-13.133 21.265-20.161 37.623-20.888 2.888-.128 5.58-1.5 7.38-3.763 12.897-16.205 29.623-26.1 52.636-31.141 5.396-1.182 8.811-6.513 7.629-11.908s-6.516-8.809-11.908-7.629c-25.746 5.64-45.801 17.039-61.156 34.791-20.738 2.109-37.591 12.271-48.932 29.577-10.647 16.248-16.293 38.517-16.325 64.4-.026 20.768 3.577 42.434 10.185 61.684-4.272 5.184-6.84 11.822-6.84 19.048 0 16.542 13.458 30 30 30h9.294c9.547 24.693 26.289 46.711 47.709 62.568 13.108 9.704 27.527 16.91 42.753 21.504-1.575 23.772-10.815 25.927-20.259 25.927h-19.501c-38.599 0-70 31.402-70 70v72c0 5.523 4.478 10 10 10h280c5.522 0 10-4.477 10-10v-72c0-38.598-31.401-70-69.999-70h-19.501c-9.446 0-18.686-2.156-20.26-25.925 15.229-4.594 29.651-11.801 42.761-21.507 21.42-15.857 38.162-37.875 47.709-62.568h9.294c16.542 0 30-13.458 30-30 0-7.345-2.657-14.078-7.055-19.298 23.769-85.187 1.082-123.79-13.083-138.516zm-279.867 409.813h40.003v20.001h-40.003zm219.998 20.001v-20.001h40.002v20.001zm-9.997-112c27.569 0 49.999 22.43 49.999 50v21.999h-40.002c0-5.523-4.478-10-10-10s-10 4.477-10 10v40.001h-139.995v-40.002c0-5.523-4.478-10-10-10s-10 4.477-10 10h-40.003v-21.999c0-27.57 22.43-50 50-50h19.501c6.154 0 11.291-1.029 15.604-2.665 12.061 11.452 28.068 17.904 44.895 17.904 16.828 0 32.835-6.452 44.896-17.904 4.314 1.637 9.45 2.665 15.604 2.665h19.501zm-52.199-16.902c.339.558.712 1.125 1.104 1.694-8.059 6.703-18.243 10.446-28.905 10.446s-20.844-3.743-28.903-10.445c.377-.549.735-1.094 1.064-1.632 3.933-6.438 6.317-14.44 7.305-24.687 6.75.996 13.605 1.524 20.537 1.524 6.931 0 13.784-.528 20.532-1.523.986 10.212 3.356 18.196 7.266 24.623zm112.202-133.098h-16.345c-4.329 0-8.167 2.786-9.508 6.902-16.196 49.702-62.069 83.096-114.147 83.096s-97.951-33.394-114.147-83.097c-1.341-4.116-5.179-6.902-9.508-6.902h-16.345c-5.514 0-10-4.486-10-10s4.486-10 10.001-10l10-.001c5.522-.001 9.999-4.478 9.999-10 0-19.334 6.752-37.443 18.061-48.44 7.941-7.722 17.744-11.631 29.155-11.631.472 0 .945.007 1.422.02 3.385.09 6.594-1.533 8.517-4.325 7.456-10.829 31.113-17.656 57.524-16.609 26.725 1.062 60.285 10.863 74.329 35.188 1.782 3.087 5.073 4.992 8.638 5h.022c3.556 0 6.846-1.889 8.638-4.961 3.2-5.485 5.688-12.738 7.103-20.011 11.463 9.576 26.592 29.152 26.592 65.77 0 5.523 4.477 10 9.999 10h10.001c5.514 0 10 4.486 10 10s-4.488 10.001-10.001 10.001z"/><path d="m256.025 25.904c5.522 0 10-4.477 10-10s-4.478-10-10-10h-.007c-5.522 0-9.996 4.477-9.996 10s4.48 10 10.003 10z"/></g></g></svg>